# xmcd
#
# Track frame offsets:
#	150
#	28914
#	44046
#	58503
#	77739
#	88108
#	111856
#	130820
#	158197
#	181569
#	199095
#	210989
#	228625
#	249918
#	273901
#	291053
#
# Disc length: 4137
#
# Revision: 1
# Processed by: cddbd v1.5.1PL0 Copyright (c) Steve Scherf et al.
# Submitted via: CDex 1.51
# Normalized: r0:TRMNUM
#
DISCID=db102710
DTITLE=The Kingsnakes - Hot Snakes - Live at Copperfield's 1989
DYEAR=2004
DGENRE=Blues
TTITLE0=I Heard it Through the Grapevine
TTITLE1=Think it Over
TTITLE2=Caldonia
TTITLE3=Tough as Nails
TTITLE4=Oops
TTITLE5=No One But a Fool
TTITLE6=Just Got to Know
TTITLE7=Got My Mojo Workin
TTITLE8=It's Twine Time
TTITLE9=Cadillac Woman
TTITLE10=Blue Monday
TTITLE11=Cissy Strut
TTITLE12=If you can't get what you want
TTITLE13=Mama, Talk to your daughter
TTITLE14=She's Tough
TTITLE15=Whammer Jammer
EXTD=YEAR: 2004
EXTT0=
EXTT1=
EXTT2=
EXTT3=
EXTT4=
EXTT5=
EXTT6=
EXTT7=
EXTT8=
EXTT9=
EXTT10=
EXTT11=
EXTT12=
EXTT13=
EXTT14=
EXTT15=
PLAYORDER=
